{
  "source": "C:\\Users\\Peter\\Desktop\\stuff\\MIUN\\quantitative_research\\video_compression\\videos\\BVI-HD\\BVI-HD_CDVL_videos\\ORIG\\Diver_1920x1080_30fps.mp4",
  "output": "C:\\Users\\Peter\\Desktop\\stuff\\MIUN\\quantitative_research\\video_compression\\compressed_videos\\BVI-HD\\vp9\\1\\Diver_1920x1080_30fps_vp9.webm",
  "codec": "vp9",
  "ok": "Input #0, mov,mp4,m4a,3gp,3g2,mj2, from 'C:\\Users\\Peter\\Desktop\\stuff\\MIUN\\quantitative_research\\video_compression\\videos\\BVI-HD\\BVI-HD_CDVL_videos\\ORIG\\Diver_1920x1080_30fps.mp4':\n  Metadata:\n    major_brand     : isom\n    minor_version   : 512\n    compatible_brands: isomiso2avc1mp41\n    encoder         : Lavf54.28.101\n  Duration: 00:00:05.00, start: 0.000000, bitrate: 196798 kb/s\n  Stream #0:0[0x1](und): Video: h264 (High 4:4:4 Predictive) (avc1 / 0x31637661), yuv420p(progressive), 1920x1080, 196794 kb/s, 30 fps, 30 tbr, 30 tbn (default)\n    Metadata:\n      handler_name    : VideoHandler\n      vendor_id       : [0][0][0][0]\n[out#0/webm @ 0000012793789380] Codec AVOption b:a (set bitrate (in bits/s)) has not been used for any stream. The most likely reason is either wrong type (e.g. a video option with no video streams) or that it is a private option of some decoder which was not actually used for any stream.\nStream mapping:\n  Stream #0:0 -> #0:0 (h264 (native) -> vp9 (libvpx-vp9))\nPress [q] to stop, [?] for help\n[libvpx-vp9 @ 0000012793f31440] v1.15.2-100-g40561f514\nOutput #0, webm, to 'C:\\Users\\Peter\\Desktop\\stuff\\MIUN\\quantitative_research\\video_compression\\compressed_videos\\BVI-HD\\vp9\\1\\Diver_1920x1080_30fps_vp9.webm':\n  Metadata:\n    major_brand     : isom\n    minor_version   : 512\n    compatible_brands: isomiso2avc1mp41\n    encoder         : Lavf62.3.100\n  Stream #0:0(und): Video: vp9, yuv420p(tv, progressive), 1920x1080, q=2-31, 1000 kb/s, 30 fps, 1k tbn (default)\n    Metadata:\n      encoder         : Lavc62.11.100 libvpx-vp9\n      handler_name    : VideoHandler\n      vendor_id       : [0][0][0][0]\n    Side data:\n      cpb: bitrate max/min/avg: 0/0/0 buffer size: 1000000 vbv_delay: N/A\nframe=    0 fps=0.0 q=0.0 size=       0KiB time=N/A bitrate=N/A speed=N/A elapsed=0:00:00.51    \nframe=    9 fps=8.7 q=39.0 size=       1KiB time=00:00:00.30 bitrate=  16.9kbits/s speed=0.291x elapsed=0:00:01.03    \nframe=   17 fps= 11 q=36.0 size=       1KiB time=00:00:00.56 bitrate=   9.0kbits/s speed=0.366x elapsed=0:00:01.54    \nframe=   25 fps= 12 q=36.0 size=       1KiB time=00:00:00.83 bitrate=   6.1kbits/s speed=0.399x elapsed=0:00:02.09    \nframe=   32 fps= 12 q=36.0 size=       1KiB time=00:00:01.06 bitrate=   4.8kbits/s speed=0.406x elapsed=0:00:02.62    \nframe=   40 fps= 13 q=36.0 size=       1KiB time=00:00:01.33 bitrate=   3.8kbits/s speed=0.419x elapsed=0:00:03.18    \nframe=   46 fps= 12 q=36.0 size=       1KiB time=00:00:01.53 bitrate=   3.3kbits/s speed=0.413x elapsed=0:00:03.71    \nframe=   52 fps= 12 q=39.0 size=       1KiB time=00:00:01.73 bitrate=   2.9kbits/s speed=0.411x elapsed=0:00:04.21    \nframe=   58 fps= 12 q=40.0 size=       1KiB time=00:00:01.93 bitrate=   2.6kbits/s speed=0.408x elapsed=0:00:04.74    \nframe=   65 fps= 12 q=29.0 size=       1KiB time=00:00:02.16 bitrate=   2.3kbits/s speed=0.412x elapsed=0:00:05.26    \nframe=   72 fps= 12 q=41.0 size=       1KiB time=00:00:02.40 bitrate=   2.1kbits/s speed=0.415x elapsed=0:00:05.78    \nframe=   78 fps= 12 q=42.0 size=       1KiB time=00:00:02.60 bitrate=   2.0kbits/s speed=0.412x elapsed=0:00:06.30    \nframe=   84 fps= 12 q=42.0 size=       1KiB time=00:00:02.80 bitrate=   1.8kbits/s speed=0.41x elapsed=0:00:06.82    \nframe=   90 fps= 12 q=39.0 size=       1KiB time=00:00:03.00 bitrate=   1.7kbits/s speed=0.409x elapsed=0:00:07.33    \nframe=   97 fps= 12 q=40.0 size=       1KiB time=00:00:03.23 bitrate=   1.6kbits/s speed=0.412x elapsed=0:00:07.85    \nframe=  104 fps= 12 q=41.0 size=       1KiB time=00:00:03.46 bitrate=   1.5kbits/s speed=0.414x elapsed=0:00:08.36    \nframe=  110 fps= 12 q=47.0 size=       1KiB time=00:00:03.66 bitrate=   1.4kbits/s speed=0.413x elapsed=0:00:08.88    \nframe=  116 fps= 12 q=51.0 size=       1KiB time=00:00:03.86 bitrate=   1.3kbits/s speed=0.411x elapsed=0:00:09.39    \nframe=  122 fps= 12 q=53.0 size=       1KiB time=00:00:04.06 bitrate=   1.2kbits/s speed=0.41x elapsed=0:00:09.92    \nframe=  126 fps= 12 q=52.0 size=       1KiB time=00:00:04.20 bitrate=   1.2kbits/s speed=0.402x elapsed=0:00:10.45    \nframe=  126 fps= 11 q=52.0 size=       1KiB time=00:00:04.20 bitrate=   1.2kbits/s speed=0.383x elapsed=0:00:10.96    \nframe=  126 fps= 11 q=52.0 size=       1KiB time=00:00:04.20 bitrate=   1.2kbits/s speed=0.366x elapsed=0:00:11.48    \nframe=  126 fps= 10 q=52.0 size=       1KiB time=00:00:04.20 bitrate=   1.2kbits/s speed=0.35x elapsed=0:00:12.00    \n[out#0/webm @ 0000012793789380] video:538KiB audio:0KiB subtitle:0KiB other streams:0KiB global headers:0KiB muxing overhead: 0.317194%\nframe=  150 fps= 12 q=53.0 Lsize=     539KiB time=00:00:05.00 bitrate= 883.5kbits/s speed=0.415x elapsed=0:00:12.05    \n",
  "seconds": 12.291103839874268,
  "probe_out": {}
}